<?xml version="1.0" encoding="UTF-8"?>
<svg xmlns="http://www.w3.org/2000/svg" version="1.1" width="100" height="100" viewBox="0 0 100 100"><rect x="0" y="0" width="100" height="100" fill="#ffffff"/><g transform="scale(3.03)"><g transform="translate(0,0)"><path fill-rule="evenodd" d="M9 0L9 1L8 1L8 2L9 2L9 3L8 3L8 4L10 4L10 7L11 7L11 4L12 4L12 5L13 5L13 6L12 6L12 9L13 9L13 8L14 8L14 9L17 9L17 11L18 11L18 10L21 10L21 9L18 9L18 8L16 8L16 7L17 7L17 5L20 5L20 7L21 7L21 8L22 8L22 7L23 7L23 5L24 5L24 4L25 4L25 3L24 3L24 4L23 4L23 2L22 2L22 1L21 1L21 0L17 0L17 1L15 1L15 0L13 0L13 1L11 1L11 2L10 2L10 0ZM23 0L23 1L24 1L24 2L25 2L25 1L24 1L24 0ZM13 1L13 2L12 2L12 4L14 4L14 5L17 5L17 4L16 4L16 3L18 3L18 2L19 2L19 4L21 4L21 7L22 7L22 5L23 5L23 4L22 4L22 3L20 3L20 1L17 1L17 2L16 2L16 3L14 3L14 2L15 2L15 1ZM10 3L10 4L11 4L11 3ZM8 5L8 7L9 7L9 5ZM13 6L13 7L14 7L14 8L15 8L15 7L16 7L16 6L15 6L15 7L14 7L14 6ZM18 6L18 7L19 7L19 6ZM24 6L24 7L25 7L25 6ZM0 8L0 9L1 9L1 10L2 10L2 11L4 11L4 13L3 13L3 12L2 12L2 13L0 13L0 15L1 15L1 14L2 14L2 17L1 17L1 16L0 16L0 17L1 17L1 19L2 19L2 18L3 18L3 19L4 19L4 20L2 20L2 22L3 22L3 23L2 23L2 25L3 25L3 24L4 24L4 25L8 25L8 27L9 27L9 26L10 26L10 24L11 24L11 21L12 21L12 22L13 22L13 23L12 23L12 25L13 25L13 24L14 24L14 25L15 25L15 24L16 24L16 25L18 25L18 27L19 27L19 28L15 28L15 27L16 27L16 26L15 26L15 27L14 27L14 28L15 28L15 29L12 29L12 27L13 27L13 26L11 26L11 27L10 27L10 28L8 28L8 33L10 33L10 32L11 32L11 31L9 31L9 30L10 30L10 29L12 29L12 30L13 30L13 31L12 31L12 33L13 33L13 32L14 32L14 33L20 33L20 32L22 32L22 33L23 33L23 31L24 31L24 30L23 30L23 31L22 31L22 30L21 30L21 31L19 31L19 32L17 32L17 30L20 30L20 28L22 28L22 29L23 29L23 28L24 28L24 29L25 29L25 32L24 32L24 33L27 33L27 32L28 32L28 31L27 31L27 30L26 30L26 29L28 29L28 30L29 30L29 28L31 28L31 30L30 30L30 31L29 31L29 33L30 33L30 32L31 32L31 33L32 33L32 32L31 32L31 30L33 30L33 28L31 28L31 27L32 27L32 26L31 26L31 25L30 25L30 27L29 27L29 24L27 24L27 23L28 23L28 22L27 22L27 21L26 21L26 20L28 20L28 21L30 21L30 20L33 20L33 19L32 19L32 18L33 18L33 17L32 17L32 18L31 18L31 17L30 17L30 16L33 16L33 15L32 15L32 14L33 14L33 11L32 11L32 10L33 10L33 9L32 9L32 8L31 8L31 9L30 9L30 8L29 8L29 10L28 10L28 8L27 8L27 9L26 9L26 8L24 8L24 9L23 9L23 10L22 10L22 11L21 11L21 12L22 12L22 13L20 13L20 12L19 12L19 14L17 14L17 13L18 13L18 12L17 12L17 13L16 13L16 12L15 12L15 11L16 11L16 10L15 10L15 11L14 11L14 12L15 12L15 13L12 13L12 11L13 11L13 10L11 10L11 11L10 11L10 9L11 9L11 8L6 8L6 9L5 9L5 8ZM2 9L2 10L4 10L4 9ZM6 9L6 10L7 10L7 11L5 11L5 12L8 12L8 13L5 13L5 14L3 14L3 13L2 13L2 14L3 14L3 15L5 15L5 17L4 17L4 16L3 16L3 17L4 17L4 19L5 19L5 20L4 20L4 23L5 23L5 24L7 24L7 23L6 23L6 22L7 22L7 21L8 21L8 22L10 22L10 21L8 21L8 20L10 20L10 17L11 17L11 18L13 18L13 19L12 19L12 21L15 21L15 22L16 22L16 24L18 24L18 25L19 25L19 24L20 24L20 25L21 25L21 27L22 27L22 26L24 26L24 25L23 25L23 24L25 24L25 23L24 23L24 22L25 22L25 21L24 21L24 22L23 22L23 21L22 21L22 20L21 20L21 19L22 19L22 18L23 18L23 20L24 20L24 19L25 19L25 17L24 17L24 18L23 18L23 17L22 17L22 16L21 16L21 15L24 15L24 16L25 16L25 15L24 15L24 14L26 14L26 13L28 13L28 14L27 14L27 15L28 15L28 16L26 16L26 17L27 17L27 18L26 18L26 19L27 19L27 18L28 18L28 20L30 20L30 18L29 18L29 17L28 17L28 16L29 16L29 15L31 15L31 14L32 14L32 13L31 13L31 12L29 12L29 13L28 13L28 12L25 12L25 13L24 13L24 14L23 14L23 13L22 13L22 14L21 14L21 15L20 15L20 14L19 14L19 15L17 15L17 14L16 14L16 13L15 13L15 14L16 14L16 15L14 15L14 16L13 16L13 17L12 17L12 15L13 15L13 14L12 14L12 13L11 13L11 12L10 12L10 13L9 13L9 12L8 12L8 9ZM24 9L24 10L23 10L23 11L22 11L22 12L23 12L23 11L25 11L25 10L26 10L26 9ZM0 11L0 12L1 12L1 11ZM10 13L10 15L11 15L11 13ZM29 13L29 14L28 14L28 15L29 15L29 14L30 14L30 13ZM6 14L6 15L7 15L7 16L6 16L6 17L7 17L7 18L6 18L6 19L9 19L9 16L8 16L8 15L9 15L9 14L8 14L8 15L7 15L7 14ZM19 15L19 16L20 16L20 15ZM14 16L14 17L16 17L16 18L15 18L15 19L14 19L14 20L15 20L15 21L17 21L17 22L20 22L20 24L23 24L23 22L21 22L21 21L20 21L20 20L19 20L19 21L18 21L18 20L15 20L15 19L17 19L17 17L18 17L18 19L19 19L19 18L20 18L20 19L21 19L21 17L18 17L18 16L17 16L17 17L16 17L16 16ZM6 20L6 21L7 21L7 20ZM0 21L0 25L1 25L1 21ZM32 21L32 22L31 22L31 23L30 23L30 24L32 24L32 22L33 22L33 21ZM26 22L26 23L27 23L27 22ZM8 23L8 25L9 25L9 23ZM14 23L14 24L15 24L15 23ZM25 25L25 28L28 28L28 25ZM19 26L19 27L20 27L20 26ZM26 26L26 27L27 27L27 26ZM15 29L15 30L17 30L17 29ZM14 31L14 32L16 32L16 31ZM26 31L26 32L27 32L27 31ZM0 0L0 7L7 7L7 0ZM1 1L1 6L6 6L6 1ZM2 2L2 5L5 5L5 2ZM26 0L26 7L33 7L33 0ZM27 1L27 6L32 6L32 1ZM28 2L28 5L31 5L31 2ZM0 26L0 33L7 33L7 26ZM1 27L1 32L6 32L6 27ZM2 28L2 31L5 31L5 28Z" fill="#000000"/></g></g></svg>
