<?xml version="1.0" encoding="UTF-8"?>
<svg xmlns="http://www.w3.org/2000/svg" version="1.1" width="100" height="100" viewBox="0 0 100 100"><rect x="0" y="0" width="100" height="100" fill="#ffffff"/><g transform="scale(4)"><g transform="translate(0,0)"><path fill-rule="evenodd" d="M8 0L8 2L10 2L10 4L8 4L8 11L9 11L9 12L8 12L8 14L5 14L5 13L4 13L4 12L3 12L3 16L0 16L0 17L4 17L4 15L5 15L5 17L8 17L8 18L9 18L9 19L8 19L8 20L9 20L9 22L8 22L8 25L11 25L11 24L13 24L13 25L15 25L15 23L16 23L16 25L19 25L19 24L21 24L21 25L22 25L22 24L21 24L21 22L23 22L23 23L25 23L25 22L24 22L24 21L25 21L25 17L24 17L24 16L23 16L23 17L22 17L22 18L21 18L21 15L23 15L23 14L24 14L24 15L25 15L25 12L24 12L24 13L23 13L23 14L20 14L20 12L22 12L22 11L23 11L23 10L24 10L24 11L25 11L25 8L23 8L23 10L22 10L22 9L21 9L21 8L17 8L17 6L16 6L16 8L13 8L13 6L12 6L12 4L11 4L11 3L13 3L13 5L14 5L14 2L13 2L13 1L14 1L14 0L11 0L11 1L9 1L9 0ZM16 0L16 2L17 2L17 0ZM11 1L11 2L12 2L12 1ZM15 3L15 4L16 4L16 5L17 5L17 4L16 4L16 3ZM9 5L9 8L10 8L10 6L11 6L11 7L12 7L12 6L11 6L11 5ZM14 6L14 7L15 7L15 6ZM0 8L0 9L1 9L1 10L0 10L0 13L1 13L1 14L0 14L0 15L2 15L2 12L1 12L1 10L2 10L2 11L4 11L4 10L5 10L5 11L7 11L7 10L5 10L5 9L7 9L7 8L5 8L5 9L4 9L4 10L3 10L3 8ZM11 8L11 10L9 10L9 11L10 11L10 13L9 13L9 14L11 14L11 15L12 15L12 13L11 13L11 12L13 12L13 11L14 11L14 13L13 13L13 14L15 14L15 9L14 9L14 10L13 10L13 8ZM16 8L16 9L17 9L17 10L16 10L16 13L17 13L17 14L16 14L16 15L17 15L17 14L18 14L18 12L17 12L17 10L18 10L18 9L17 9L17 8ZM20 9L20 10L19 10L19 11L21 11L21 9ZM11 10L11 11L12 11L12 10ZM6 12L6 13L7 13L7 12ZM6 15L6 16L8 16L8 17L9 17L9 18L10 18L10 20L13 20L13 19L14 19L14 21L13 21L13 22L16 22L16 23L17 23L17 21L15 21L15 19L16 19L16 16L15 16L15 18L13 18L13 16L14 16L14 15L13 15L13 16L11 16L11 18L10 18L10 17L9 17L9 16L8 16L8 15ZM18 15L18 16L19 16L19 15ZM17 17L17 20L20 20L20 17ZM23 17L23 18L22 18L22 19L21 19L21 20L22 20L22 21L23 21L23 19L24 19L24 17ZM11 18L11 19L12 19L12 18ZM18 18L18 19L19 19L19 18ZM11 21L11 23L10 23L10 22L9 22L9 24L11 24L11 23L12 23L12 21ZM18 21L18 23L20 23L20 21ZM13 23L13 24L14 24L14 23ZM24 24L24 25L25 25L25 24ZM0 0L0 7L7 7L7 0ZM1 1L1 6L6 6L6 1ZM2 2L2 5L5 5L5 2ZM18 0L18 7L25 7L25 0ZM19 1L19 6L24 6L24 1ZM20 2L20 5L23 5L23 2ZM0 18L0 25L7 25L7 18ZM1 19L1 24L6 24L6 19ZM2 20L2 23L5 23L5 20Z" fill="#000000"/></g></g></svg>
