<?xml version="1.0" encoding="UTF-8"?>
<svg xmlns="http://www.w3.org/2000/svg" version="1.1" width="100" height="100" viewBox="0 0 100 100"><rect x="0" y="0" width="100" height="100" fill="#ffffff"/><g transform="scale(3.448)"><g transform="translate(0,0)"><path fill-rule="evenodd" d="M8 0L8 1L9 1L9 2L8 2L8 5L9 5L9 4L11 4L11 5L10 5L10 10L9 10L9 11L7 11L7 10L8 10L8 9L9 9L9 8L8 8L8 9L7 9L7 8L6 8L6 9L5 9L5 10L4 10L4 8L0 8L0 9L3 9L3 11L4 11L4 12L2 12L2 10L1 10L1 12L2 12L2 13L1 13L1 14L0 14L0 17L1 17L1 14L2 14L2 15L3 15L3 16L2 16L2 17L3 17L3 18L4 18L4 17L5 17L5 20L1 20L1 21L7 21L7 20L6 20L6 19L7 19L7 18L6 18L6 17L7 17L7 16L4 16L4 15L5 15L5 13L8 13L8 14L6 14L6 15L8 15L8 16L9 16L9 17L10 17L10 18L11 18L11 16L12 16L12 14L13 14L13 13L15 13L15 14L16 14L16 15L18 15L18 12L19 12L19 16L18 16L18 17L17 17L17 16L16 16L16 17L15 17L15 15L14 15L14 16L13 16L13 17L15 17L15 18L12 18L12 21L11 21L11 20L10 20L10 19L9 19L9 18L8 18L8 19L9 19L9 21L8 21L8 22L10 22L10 21L11 21L11 23L10 23L10 26L9 26L9 25L8 25L8 29L9 29L9 28L11 28L11 25L13 25L13 26L12 26L12 27L13 27L13 26L14 26L14 28L13 28L13 29L14 29L14 28L15 28L15 29L16 29L16 28L17 28L17 27L19 27L19 28L18 28L18 29L21 29L21 28L22 28L22 25L24 25L24 26L23 26L23 29L24 29L24 26L26 26L26 27L25 27L25 29L26 29L26 27L27 27L27 29L28 29L28 27L29 27L29 24L28 24L28 27L27 27L27 26L26 26L26 25L27 25L27 24L26 24L26 22L27 22L27 23L28 23L28 22L29 22L29 21L27 21L27 18L28 18L28 15L29 15L29 13L27 13L27 12L25 12L25 13L26 13L26 15L27 15L27 17L26 17L26 16L23 16L23 18L22 18L22 19L21 19L21 16L22 16L22 15L20 15L20 11L19 11L19 10L23 10L23 13L22 13L22 14L23 14L23 15L24 15L24 14L23 14L23 13L24 13L24 10L25 10L25 9L27 9L27 8L24 8L24 9L22 9L22 8L21 8L21 9L19 9L19 8L18 8L18 7L19 7L19 6L20 6L20 7L21 7L21 6L20 6L20 4L18 4L18 3L17 3L17 1L18 1L18 2L19 2L19 3L21 3L21 2L19 2L19 1L20 1L20 0L16 0L16 2L15 2L15 3L14 3L14 2L13 2L13 0L12 0L12 1L11 1L11 0L10 0L10 1L9 1L9 0ZM14 0L14 1L15 1L15 0ZM11 2L11 4L12 4L12 3L13 3L13 2ZM13 4L13 5L12 5L12 6L11 6L11 8L12 8L12 6L13 6L13 9L14 9L14 10L13 10L13 11L11 11L11 13L10 13L10 14L8 14L8 15L9 15L9 16L11 16L11 15L10 15L10 14L11 14L11 13L12 13L12 12L13 12L13 11L16 11L16 9L17 9L17 10L18 10L18 9L17 9L17 7L18 7L18 5L15 5L15 7L14 7L14 6L13 6L13 5L14 5L14 4ZM8 6L8 7L9 7L9 6ZM16 6L16 7L17 7L17 6ZM14 8L14 9L16 9L16 8ZM28 8L28 10L26 10L26 11L28 11L28 12L29 12L29 11L28 11L28 10L29 10L29 8ZM6 9L6 10L5 10L5 11L6 11L6 12L7 12L7 11L6 11L6 10L7 10L7 9ZM11 9L11 10L12 10L12 9ZM17 11L17 12L18 12L18 11ZM21 11L21 12L22 12L22 11ZM4 12L4 13L5 13L5 12ZM2 13L2 14L3 14L3 15L4 15L4 14L3 14L3 13ZM19 16L19 17L18 17L18 18L17 18L17 17L16 17L16 18L17 18L17 19L16 19L16 20L15 20L15 21L14 21L14 19L13 19L13 22L15 22L15 24L16 24L16 25L17 25L17 26L15 26L15 27L17 27L17 26L20 26L20 27L21 27L21 25L20 25L20 23L18 23L18 22L17 22L17 24L16 24L16 21L17 21L17 19L18 19L18 20L19 20L19 22L20 22L20 20L21 20L21 19L20 19L20 16ZM24 17L24 19L22 19L22 20L26 20L26 18L25 18L25 17ZM0 18L0 19L1 19L1 18ZM18 18L18 19L19 19L19 20L20 20L20 19L19 19L19 18ZM21 21L21 24L24 24L24 21ZM22 22L22 23L23 23L23 22ZM17 24L17 25L18 25L18 24ZM25 24L25 25L26 25L26 24ZM0 0L0 7L7 7L7 0ZM1 1L1 6L6 6L6 1ZM2 2L2 5L5 5L5 2ZM22 0L22 7L29 7L29 0ZM23 1L23 6L28 6L28 1ZM24 2L24 5L27 5L27 2ZM0 22L0 29L7 29L7 22ZM1 23L1 28L6 28L6 23ZM2 24L2 27L5 27L5 24Z" fill="#000000"/></g></g></svg>
